<?xml version="1.0" encoding="UTF-8"?>
<!--Generator: Apple Native CoreSVG 175.5-->
<!DOCTYPE svg
PUBLIC "-//W3C//DTD SVG 1.1//EN"
       "http://www.w3.org/Graphics/SVG/1.1/DTD/svg11.dtd">
<svg version="1.1" xmlns="http://www.w3.org/2000/svg" xmlns:xlink="http://www.w3.org/1999/xlink" width="190.875" height="198.844">
 <g>
  <rect height="198.844" opacity="0" width="190.875" x="0" y="0"/>
  <path d="M0 102.656C0 130.875 8.15625 162 21.9375 186.188C24.2812 190.219 28.6875 191.344 32.9062 189C36.8438 186.844 37.9688 182.438 35.5312 178.031C22.9688 155.156 15.9375 127.875 15.9375 102.656C15.9375 50.625 47.7188 15.9375 95.4375 15.9375C143.062 15.9375 174.938 50.625 174.938 102.656C174.938 127.875 167.812 155.156 155.25 178.031C152.812 182.438 153.938 186.844 157.875 189C162.094 191.344 166.594 190.219 168.844 186.188C182.625 162 190.875 130.875 190.875 102.656C190.875 40.9688 152.812 0 95.4375 0C37.9688 0 0 40.9688 0 102.656ZM29.3438 183.844C32.4375 194.625 41.625 199.594 52.5 196.5C63.2812 193.406 68.3438 184.031 65.1562 173.25L51.75 127.5C48.6562 116.812 39.4688 111.75 28.5938 114.844C17.8125 118.031 12.75 127.312 15.9375 138.188ZM161.438 183.844L174.844 138.188C178.031 127.219 173.062 118.031 162.188 114.844C151.312 111.75 142.219 116.812 139.031 127.5L125.625 173.25C122.438 184.125 127.5 193.406 138.281 196.5C149.25 199.594 158.344 194.625 161.438 183.844Z" fill="#ffffff" fill-opacity="0.85"/>
 </g>
</svg>
