<?xml version="1.0" encoding="UTF-8"?>
<!--Generator: Apple Native CoreSVG 175.5-->
<!DOCTYPE svg
PUBLIC "-//W3C//DTD SVG 1.1//EN"
       "http://www.w3.org/Graphics/SVG/1.1/DTD/svg11.dtd">
<svg version="1.1" xmlns="http://www.w3.org/2000/svg" xmlns:xlink="http://www.w3.org/1999/xlink" width="255" height="255.125">
 <g>
  <rect height="255.125" opacity="0" width="255" x="0" y="0"/>
  <path d="M127.5 255C197.25 255 255 197.125 255 127.5C255 57.75 197.125 0 127.375 0C57.75 0 0 57.75 0 127.5C0 197.125 57.875 255 127.5 255ZM127.5 233.75C68.5 233.75 21.375 186.5 21.375 127.5C21.375 68.5 68.375 21.25 127.375 21.25C186.375 21.25 233.75 68.5 233.75 127.5C233.75 186.5 186.5 233.75 127.5 233.75ZM128 204.875C163.875 204.875 187.75 180.5 187.75 144C187.75 83.125 136 57.75 100.125 57.75C93.75 57.75 89.75 60.25 89.75 64.5C89.75 66.25 90.5 67.875 91.875 69.625C99.75 79.125 108 90.625 108.125 104C108.125 107.25 107.75 109.875 105.625 113.625L109 113C105.875 103 97.75 95.875 90.5 95.875C87.75 95.875 85.875 98 85.875 101C85.875 102.625 86.375 106.875 86.375 110C86.375 125.125 74.75 134.125 74.75 158.5C74.75 186.25 95.875 204.875 128 204.875ZM129.625 185.75C117 185.75 108.375 178 108.375 166.5C108.375 154.625 117 150.375 118.125 142.75C118.125 142 118.625 141.875 119.125 142.375C122.25 145 124.125 148.5 126 152.375C129.625 147.5 131.25 137.25 130.125 126.25C130 125.375 130.375 125.25 131 125.375C146 132.375 153.5 147.25 153.5 160.375C153.5 173.75 145.75 185.75 129.625 185.75Z" fill="#ffffff" fill-opacity="0.85"/>
 </g>
</svg>
