<?xml version="1.0" encoding="UTF-8"?>
<!--Generator: Apple Native CoreSVG 175.5-->
<!DOCTYPE svg
PUBLIC "-//W3C//DTD SVG 1.1//EN"
       "http://www.w3.org/Graphics/SVG/1.1/DTD/svg11.dtd">
<svg version="1.1" xmlns="http://www.w3.org/2000/svg" xmlns:xlink="http://www.w3.org/1999/xlink" width="172.594" height="172.781">
 <g>
  <rect height="172.781" opacity="0" width="172.594" x="0" y="0"/>
  <path d="M47.1562 31.0312C39.4688 31.0312 33.75 37.0312 33.75 45.2812C33.75 57.4688 46.875 68.1562 56.1562 74.625C57.0938 75.2812 58.0312 75.75 58.5938 75.75C59.25 75.75 60 75.1875 60.8438 74.625C70.3125 68.8125 83.1562 57.4688 83.1562 45.2812C83.1562 37.0312 77.4375 31.0312 69.5625 31.0312C64.7812 31.0312 60.75 33.9375 58.5 38.25C56.1562 33.9375 52.3125 31.0312 47.1562 31.0312ZM39.6562 105.094L132 105.094C135.281 105.094 137.812 102.562 137.812 99.2812C137.812 96.0938 135.281 93.5625 132 93.5625L39.6562 93.5625C36.2812 93.5625 33.75 96.0938 33.75 99.2812C33.75 102.562 36.2812 105.094 39.6562 105.094ZM39.6562 137.156L107.344 137.156C110.625 137.156 113.156 134.625 113.156 131.438C113.156 128.156 110.625 125.625 107.344 125.625L39.6562 125.625C36.2812 125.625 33.75 128.156 33.75 131.438C33.75 134.625 36.2812 137.156 39.6562 137.156ZM29.4375 172.781L143.156 172.781C162.844 172.781 172.594 163.031 172.594 143.719L172.594 29.25C172.594 9.9375 162.844 0.1875 143.156 0.1875L29.4375 0.1875C9.84375 0.1875 0 9.84375 0 29.25L0 143.719C0 163.125 9.84375 172.781 29.4375 172.781ZM29.625 157.688C20.25 157.688 15.0938 152.719 15.0938 142.969L15.0938 30C15.0938 20.25 20.25 15.2812 29.625 15.2812L142.969 15.2812C152.25 15.2812 157.5 20.25 157.5 30L157.5 142.969C157.5 152.719 152.25 157.688 142.969 157.688Z" fill="#ffffff" fill-opacity="0.85"/>
 </g>
</svg>
