<?xml version="1.0" encoding="UTF-8"?>
<!--Generator: Apple Native CoreSVG 232.5-->
<!DOCTYPE svg
PUBLIC "-//W3C//DTD SVG 1.1//EN"
       "http://www.w3.org/Graphics/SVG/1.1/DTD/svg11.dtd">
<svg version="1.1" xmlns="http://www.w3.org/2000/svg" xmlns:xlink="http://www.w3.org/1999/xlink" width="294.75" height="230.125">
 <g>
  <rect height="230.125" opacity="0" width="294.75" x="0" y="0"/>
  <path d="M281.875 184.75L207.625 115C202.125 109.875 195.5 107.25 188.75 107.25C181.875 107.25 175.75 109.625 170 114.75L113.5 165.25L90.375 144.375C85.125 139.625 79.375 137.25 73.5 137.25C67.875 137.25 62.5 139.5 57.375 144.25L9.75 187.25C10.5 209.875 19.75 221.375 38.375 221.375L247.875 221.375C270.5 221.375 281.875 208.75 281.875 184.75ZM39.25 230.125L255.5 230.125C281.75 230.125 294.75 217.25 294.75 191.5L294.75 38.75C294.75 13 281.75 0 255.5 0L39.25 0C13.125 0 0 13 0 38.75L0 191.5C0 217.25 13.125 230.125 39.25 230.125ZM39.5 210C27 210 20.125 203.375 20.125 190.375L20.125 39.875C20.125 26.875 27 20.125 39.5 20.125L255.25 20.125C267.625 20.125 274.625 26.875 274.625 39.875L274.625 190.375C274.625 203.375 267.625 210 255.25 210Z" fill="#ffffff" fill-opacity="0.85"/>
  <path d="M93.125 116.25C109.25 116.25 122.5 103 122.5 86.75C122.5 70.625 109.25 57.25 93.125 57.25C76.875 57.25 63.625 70.625 63.625 86.75C63.625 103 76.875 116.25 93.125 116.25Z" fill="#ffffff" fill-opacity="0.85"/>
 </g>
</svg>
