<?xml version="1.0" encoding="UTF-8"?>
<!--Generator: Apple Native CoreSVG 175.5-->
<!DOCTYPE svg
PUBLIC "-//W3C//DTD SVG 1.1//EN"
       "http://www.w3.org/Graphics/SVG/1.1/DTD/svg11.dtd">
<svg version="1.1" xmlns="http://www.w3.org/2000/svg" xmlns:xlink="http://www.w3.org/1999/xlink" width="166.5" height="184.031">
 <g>
  <rect height="184.031" opacity="0" width="166.5" x="0" y="0"/>
  <path d="M7.125 184.031C11.0625 184.031 14.25 180.938 14.25 177L14.25 124.875C16.5938 123.844 25.4062 120.469 39.1875 120.469C73.875 120.469 95.625 137.438 128.625 137.438C143.25 137.438 148.688 135.844 155.812 132.656C162.281 129.75 166.5 124.875 166.5 116.25L166.5 21.0938C166.5 16.0312 162.188 13.125 156.75 13.125C152.156 13.125 143.531 17.0625 127.406 17.0625C94.4062 17.0625 72.75 0.09375 37.9688 0.09375C23.3438 0.09375 17.8125 1.6875 10.6875 4.875C4.21875 7.78125 0 12.6562 0 21.1875L0 177C0 180.844 3.28125 184.031 7.125 184.031ZM14.25 82.0312L14.25 50.25C15.5625 47.1562 23.3438 42.8438 37.9688 42.8438C40.9688 42.8438 45.0938 43.0312 48.375 43.4062L48.375 14.8125C61.0312 16.125 72.1875 19.7812 83.625 23.1562L83.625 51.75C95.25 55.3125 106.125 58.3125 118.781 59.4375L118.781 30.8438C121.594 31.125 124.406 31.2188 127.406 31.2188C137.625 31.2188 146.062 30 152.344 28.2188L152.344 56.8125C147.656 58.125 138.656 59.8125 127.406 59.8125C124.5 59.8125 121.5 59.625 118.781 59.4375L118.781 91.2188C121.5 91.5 124.125 91.5938 127.406 91.5938C137.625 91.5938 146.062 90.375 152.344 88.5938L152.344 115.875C151.031 118.969 143.25 123.281 128.625 123.281C125.25 123.281 121.969 123.094 118.781 122.719L118.781 91.2188C106.125 89.8125 95.625 87.4688 83.625 83.5312L83.625 114.188C72.75 110.906 61.5 107.719 48.375 106.594L48.375 75.1875C44.8125 74.8125 42.375 74.625 37.9688 74.625C23.3438 74.625 15.5625 78.9375 14.25 82.0312ZM48.375 75.1875C61.3125 76.5938 71.1562 79.875 83.625 83.5312L83.625 51.75C71.9062 48.2812 61.4062 44.7188 48.375 43.4062Z" fill="#ffffff" fill-opacity="0.85"/>
 </g>
</svg>
