<?xml version="1.0" encoding="UTF-8"?>
<!--Generator: Apple Native CoreSVG 175.5-->
<!DOCTYPE svg
PUBLIC "-//W3C//DTD SVG 1.1//EN"
       "http://www.w3.org/Graphics/SVG/1.1/DTD/svg11.dtd">
<svg version="1.1" xmlns="http://www.w3.org/2000/svg" xmlns:xlink="http://www.w3.org/1999/xlink" width="142.875" height="199.031">
 <g>
  <rect height="199.031" opacity="0" width="142.875" x="0" y="0"/>
  <path d="M142.875 191.438L142.875 19.125C142.875 7.6875 135.094 0 123.281 0L19.5938 0C7.875 0 0 7.6875 0 19.125L0 191.438C0 195.562 3.375 198.938 7.5 198.938C11.7188 198.938 15.0938 195.562 15.0938 191.438L15.0938 20.0625C15.0938 17.0625 17.0625 15.0938 19.875 15.0938L123 15.0938C125.812 15.0938 127.781 17.0625 127.781 20.0625L127.781 191.438C127.781 195.562 131.156 198.938 135.375 198.938C139.5 198.938 142.875 195.562 142.875 191.438ZM116.812 193.594L116.812 28.0312C116.812 26.1562 115.312 25.2188 113.531 25.9688L84 39.0938C81.75 40.0312 80.8125 40.875 80.8125 43.2188L80.8125 178.312C80.8125 180.75 81.75 181.5 84.0938 182.531L113.531 195.562C115.312 196.312 116.812 195.375 116.812 193.594Z" fill="#ffffff" fill-opacity="0.85"/>
 </g>
</svg>
