<?xml version="1.0" encoding="UTF-8"?>
<!--Generator: Apple Native CoreSVG 232.5-->
<!DOCTYPE svg
PUBLIC "-//W3C//DTD SVG 1.1//EN"
       "http://www.w3.org/Graphics/SVG/1.1/DTD/svg11.dtd">
<svg version="1.1" xmlns="http://www.w3.org/2000/svg" xmlns:xlink="http://www.w3.org/1999/xlink" width="255" height="255.125">
 <g>
  <rect height="255.125" opacity="0" width="255" x="0" y="0"/>
  <path d="M127.5 255.125C197.25 255.125 255 197.375 255 127.625C255 58 197.125 0.125 127.375 0.125C57.75 0.125 0 58 0 127.625C0 197.375 57.875 255.125 127.5 255.125Z" fill="#ffffff" fill-opacity="0.85"/>
  <path d="M68.625 193.125C63.375 193.125 61 189.75 61 185C61 171 82.25 134.375 127.5 134.375C172.75 134.375 194 171 194 185C194 189.75 191.625 193.125 186.375 193.125ZM127.5 123.75C109.25 123.625 94.375 108.25 94.375 87.5C94.375 68.25 109.25 52.25 127.5 52.25C145.75 52.25 160.625 68.25 160.625 87.5C160.625 108.25 145.75 123.875 127.5 123.75Z" fill="#1e1e1e"/>
 </g>
</svg>
