<?xml version="1.0" encoding="UTF-8"?>
<!--Generator: Apple Native CoreSVG 175.5-->
<!DOCTYPE svg
PUBLIC "-//W3C//DTD SVG 1.1//EN"
       "http://www.w3.org/Graphics/SVG/1.1/DTD/svg11.dtd">
<svg version="1.1" xmlns="http://www.w3.org/2000/svg" xmlns:xlink="http://www.w3.org/1999/xlink" width="191.25" height="191.344">
 <g>
  <rect height="191.344" opacity="0" width="191.25" x="0" y="0"/>
  <path d="M95.625 191.25C147.938 191.25 191.25 147.844 191.25 95.625C191.25 43.3125 147.844 0 95.5312 0C43.3125 0 0 43.3125 0 95.625C0 147.844 43.4062 191.25 95.625 191.25ZM95.625 175.312C51.375 175.312 16.0312 139.875 16.0312 95.625C16.0312 51.375 51.2812 15.9375 95.5312 15.9375C139.781 15.9375 175.312 51.375 175.312 95.625C175.312 139.875 139.875 175.312 95.625 175.312ZM93.6562 115.031C98.3438 115.031 101.25 112.031 101.25 108.375C101.25 108 101.25 107.531 101.25 107.25C101.25 102 104.25 98.625 110.812 94.3125C119.906 88.3125 126.375 82.875 126.375 71.625C126.375 56.0625 112.5 47.625 96.5625 47.625C80.4375 47.625 69.8438 55.3125 67.3125 63.9375C66.8438 65.4375 66.5625 66.9375 66.5625 68.5312C66.5625 72.75 69.8438 75 72.9375 75C76.125 75 78.1875 73.5 79.875 71.25L81.5625 69C84.8438 63.5625 89.7188 60.375 96 60.375C104.531 60.375 110.062 65.25 110.062 72.375C110.062 78.75 106.125 81.8438 97.9688 87.5625C91.2188 92.25 86.1562 97.2188 86.1562 106.406C86.1562 106.781 86.1562 107.25 86.1562 107.625C86.1562 112.5 88.875 115.031 93.6562 115.031ZM93.4688 142.969C98.9062 142.969 103.594 138.656 103.594 133.219C103.594 127.781 99 123.469 93.4688 123.469C87.9375 123.469 83.3438 127.875 83.3438 133.219C83.3438 138.562 88.0312 142.969 93.4688 142.969Z" fill="#ffffff" fill-opacity="0.85"/>
 </g>
</svg>
