<?xml version="1.0" encoding="UTF-8"?>
<!--Generator: Apple Native CoreSVG 175.5-->
<!DOCTYPE svg
PUBLIC "-//W3C//DTD SVG 1.1//EN"
       "http://www.w3.org/Graphics/SVG/1.1/DTD/svg11.dtd">
<svg version="1.1" xmlns="http://www.w3.org/2000/svg" xmlns:xlink="http://www.w3.org/1999/xlink" width="166.406" height="225.469">
 <g>
  <rect height="225.469" opacity="0" width="166.406" x="0" y="0"/>
  <path d="M29.4375 211.594L136.969 211.594C156.562 211.594 166.406 201.844 166.406 182.531L166.406 88.9688C166.406 69.6562 156.562 59.9062 136.969 59.9062L110.812 59.9062L110.812 75L136.688 75C145.969 75 151.312 80.0625 151.312 89.8125L151.312 181.688C151.312 191.438 145.969 196.5 136.688 196.5L29.625 196.5C20.25 196.5 15.0938 191.438 15.0938 181.688L15.0938 89.8125C15.0938 80.0625 20.25 75 29.625 75L55.5938 75L55.5938 59.9062L29.4375 59.9062C9.84375 59.9062 0 69.6562 0 88.9688L0 182.531C0 201.844 9.84375 211.594 29.4375 211.594ZM83.1562 138.188C87.1875 138.188 90.6562 134.812 90.6562 130.875L90.6562 34.5938L90.0938 20.5312L96.375 27.1875L110.625 42.375C111.938 43.875 113.812 44.625 115.688 44.625C119.531 44.625 122.531 41.8125 122.531 37.9688C122.531 36 121.688 34.5 120.281 33.0938L88.5938 2.53125C86.7188 0.65625 85.125 0 83.1562 0C81.2812 0 79.6875 0.65625 77.7188 2.53125L46.0312 33.0938C44.625 34.5 43.875 36 43.875 37.9688C43.875 41.8125 46.6875 44.625 50.625 44.625C52.4062 44.625 54.4688 43.875 55.7812 42.375L69.9375 27.1875L76.3125 20.5312L75.75 34.5938L75.75 130.875C75.75 134.812 79.125 138.188 83.1562 138.188Z" fill="#ffffff" fill-opacity="0.85"/>
 </g>
</svg>
