<?xml version="1.0" encoding="UTF-8"?>
<!--Generator: Apple Native CoreSVG 232.5-->
<!DOCTYPE svg
PUBLIC "-//W3C//DTD SVG 1.1//EN"
       "http://www.w3.org/Graphics/SVG/1.1/DTD/svg11.dtd">
<svg version="1.1" xmlns="http://www.w3.org/2000/svg" xmlns:xlink="http://www.w3.org/1999/xlink" width="210.375" height="224.875">
 <g>
  <rect height="224.875" opacity="0" width="210.375" x="0" y="0"/>
  <path d="M21.375 224.75L189 224.75C202.375 224.75 210.375 218.5 210.375 208.125C210.375 175.875 170 131.375 105.125 131.375C40.375 131.375 0 175.875 0 208.125C0 218.5 8 224.75 21.375 224.75ZM105.25 109C132 109 155.25 85 155.25 53.75C155.25 22.875 132 0 105.25 0C78.5 0 55.25 23.375 55.25 54C55.25 85 78.375 109 105.25 109Z" fill="#ffffff" fill-opacity="0.85"/>
 </g>
</svg>
