<?xml version="1.0" encoding="UTF-8"?>
<!--Generator: Apple Native CoreSVG 175.5-->
<!DOCTYPE svg
PUBLIC "-//W3C//DTD SVG 1.1//EN"
       "http://www.w3.org/Graphics/SVG/1.1/DTD/svg11.dtd">
<svg version="1.1" xmlns="http://www.w3.org/2000/svg" xmlns:xlink="http://www.w3.org/1999/xlink" width="191.25" height="191.344">
 <g>
  <rect height="191.344" opacity="0" width="191.25" x="0" y="0"/>
  <path d="M95.625 191.25C147.938 191.25 191.25 147.844 191.25 95.625C191.25 43.3125 147.844 0 95.5312 0C43.3125 0 0 43.3125 0 95.625C0 147.844 43.4062 191.25 95.625 191.25ZM95.625 175.312C51.375 175.312 16.0312 139.875 16.0312 95.625C16.0312 51.375 51.2812 15.9375 95.5312 15.9375C139.781 15.9375 175.312 51.375 175.312 95.625C175.312 139.875 139.875 175.312 95.625 175.312ZM52.6875 143.156L138.375 143.156C142.125 143.156 143.906 140.625 143.906 137.25C143.906 126.938 128.438 100.312 95.5312 100.312C62.625 100.312 47.1562 126.938 47.1562 137.25C47.1562 140.625 48.9375 143.156 52.6875 143.156ZM95.5312 92.7188C108.844 92.8125 119.625 81.375 119.625 66.375C119.625 52.3125 108.844 40.6875 95.5312 40.6875C82.2188 40.6875 71.4375 52.3125 71.4375 66.375C71.4375 81.375 82.2188 92.625 95.5312 92.7188Z" fill="#ffffff" fill-opacity="0.85"/>
 </g>
</svg>
