<?xml version="1.0" encoding="UTF-8"?>
<!--Generator: Apple Native CoreSVG 175.5-->
<!DOCTYPE svg
PUBLIC "-//W3C//DTD SVG 1.1//EN"
       "http://www.w3.org/Graphics/SVG/1.1/DTD/svg11.dtd">
<svg version="1.1" xmlns="http://www.w3.org/2000/svg" xmlns:xlink="http://www.w3.org/1999/xlink" width="147.938" height="91.4375">
 <g>
  <rect height="91.4375" opacity="0" width="147.938" x="0" y="0"/>
  <path d="M98.875 32.25C106.438 32.25 112.562 26.1875 112.562 18.625C112.562 11.0625 106.438 4.9375 98.875 4.9375C91.3125 4.9375 85.25 11.0625 85.25 18.625C85.25 26.1875 91.3125 32.25 98.875 32.25ZM73.9375 57.5625C85 57.5625 88.125 50.75 97.9375 48.25L54.625 3.1875C51.8125 0.3125 47.6875-0.0625 44.3125 2.3125L19.8125 19.75C15.5625 22.75 16 27.1875 18.4375 29.8125C20.4375 32.0625 24.125 33 27.625 30.5L47.5 16.4375L58.75 28C60 29.3125 60.375 31.3125 58.4375 32.625L35.3125 47.8125C38 47.5625 40.875 47.5 44.1875 47.625C58.375 48.25 61 57.5625 73.9375 57.5625ZM3.5 74.0625L9.8125 74.0625C26.5 74.0625 30.3125 63.8125 41.875 63.8125C53.4375 63.8125 57.25 74.0625 73.9375 74.0625C90.6875 74.0625 94.4375 63.8125 106.062 63.8125C117.625 63.8125 121.375 74.0625 138.125 74.0625L144.438 74.0625C146.375 74.0625 147.938 72.5625 147.938 70.625C147.938 68.6875 146.375 67.125 144.438 67.125L138.125 67.125C126.125 67.125 122.062 56.875 106.062 56.875C90 56.875 85.9375 67.125 73.9375 67.125C61.9375 67.125 57.9375 56.875 41.875 56.875C25.875 56.875 21.8125 67.125 9.8125 67.125L3.5 67.125C1.5 67.125 0 68.6875 0 70.625C0 72.5625 1.5 74.0625 3.5 74.0625ZM5.125 91.4375C7.1875 91.4375 8.8125 89.8125 8.8125 87.8125C8.8125 85.75 7.1875 84.125 5.125 84.125C3.125 84.125 1.5 85.75 1.5 87.8125C1.5 89.8125 3.125 91.4375 5.125 91.4375ZM16.875 89.3125C18.875 89.3125 20.5 87.75 20.5 85.6875C20.5 83.625 18.875 82.0625 16.875 82.0625C14.8125 82.0625 13.1875 83.625 13.1875 85.6875C13.1875 87.75 14.8125 89.3125 16.875 89.3125ZM27.8125 84.1875C29.875 84.1875 31.5 82.5625 31.5 80.5C31.5 78.5 29.875 76.875 27.8125 76.875C25.8125 76.875 24.1875 78.5 24.1875 80.5C24.1875 82.5625 25.8125 84.1875 27.8125 84.1875ZM39.625 81.375C41.6875 81.375 43.3125 79.75 43.3125 77.75C43.3125 75.6875 41.6875 74.0625 39.625 74.0625C37.625 74.0625 36 75.6875 36 77.75C36 79.75 37.625 81.375 39.625 81.375ZM51.4375 84.1875C53.5 84.1875 55.0625 82.5625 55.0625 80.5C55.0625 78.5 53.5 76.875 51.4375 76.875C49.375 76.875 47.8125 78.5 47.8125 80.5C47.8125 82.5625 49.375 84.1875 51.4375 84.1875ZM62.5 89.3125C64.5625 89.3125 66.1875 87.75 66.1875 85.6875C66.1875 83.625 64.5625 82.0625 62.5 82.0625C60.5 82.0625 58.875 83.625 58.875 85.6875C58.875 87.75 60.5 89.3125 62.5 89.3125ZM74.0625 91.4375C76.0625 91.4375 77.6875 89.8125 77.6875 87.8125C77.6875 85.75 76.0625 84.125 74.0625 84.125C72 84.125 70.375 85.75 70.375 87.8125C70.375 89.8125 72 91.4375 74.0625 91.4375ZM85.5625 89.3125C87.625 89.3125 89.1875 87.75 89.1875 85.6875C89.1875 83.625 87.625 82.0625 85.5625 82.0625C83.5 82.0625 81.9375 83.625 81.9375 85.6875C81.9375 87.75 83.5 89.3125 85.5625 89.3125ZM96.625 84.1875C98.6875 84.1875 100.312 82.5625 100.312 80.5C100.312 78.5 98.6875 76.875 96.625 76.875C94.625 76.875 93 78.5 93 80.5C93 82.5625 94.625 84.1875 96.625 84.1875ZM108.438 81.375C110.5 81.375 112.062 79.75 112.062 77.75C112.062 75.6875 110.5 74.0625 108.438 74.0625C106.375 74.0625 104.812 75.6875 104.812 77.75C104.812 79.75 106.375 81.375 108.438 81.375ZM120.25 84.1875C122.312 84.1875 123.875 82.5625 123.875 80.5C123.875 78.5 122.312 76.875 120.25 76.875C118.188 76.875 116.625 78.5 116.625 80.5C116.625 82.5625 118.188 84.1875 120.25 84.1875ZM131.25 89.3125C133.312 89.3125 134.875 87.75 134.875 85.6875C134.875 83.625 133.312 82.0625 131.25 82.0625C129.188 82.0625 127.625 83.625 127.625 85.6875C127.625 87.75 129.188 89.3125 131.25 89.3125ZM142.875 91.4375C144.938 91.4375 146.562 89.8125 146.562 87.8125C146.562 85.75 144.938 84.125 142.875 84.125C140.875 84.125 139.25 85.75 139.25 87.8125C139.25 89.8125 140.875 91.4375 142.875 91.4375Z" fill="#ffffff" fill-opacity="0.85"/>
 </g>
</svg>
