<?xml version="1.0" encoding="UTF-8"?>
<!--Generator: Apple Native CoreSVG 175.5-->
<!DOCTYPE svg
PUBLIC "-//W3C//DTD SVG 1.1//EN"
       "http://www.w3.org/Graphics/SVG/1.1/DTD/svg11.dtd">
<svg version="1.1" xmlns="http://www.w3.org/2000/svg" xmlns:xlink="http://www.w3.org/1999/xlink" width="201.562" height="174.469">
 <g>
  <rect height="174.469" opacity="0" width="201.562" x="0" y="0"/>
  <path d="M0 167.062C0 171.562 3 174.469 7.5 174.469L193.969 174.469C198.094 174.469 201.562 171.188 201.562 166.969C201.562 162.844 198.094 159.469 193.969 159.469L17.7188 159.469C15.75 159.469 15.0938 158.812 15.0938 156.844L15.0938 8.625C15.0938 4.59375 11.7188 1.125 7.59375 1.125C3.375 1.125 0 4.59375 0 8.625ZM9.84375 108.75L70.125 73.875L113.531 111.094L190.688 65.1562L184.781 55.5938L114.281 97.5938L71.0625 60.5625L9.84375 95.9062ZM68.9062 86.5312C78.0938 86.5312 85.5938 79.0312 85.5938 69.8438C85.5938 60.6562 78.0938 53.25 68.9062 53.25C59.7188 53.25 52.2188 60.6562 52.2188 69.8438C52.2188 79.0312 59.7188 86.5312 68.9062 86.5312ZM113.156 120.938C122.344 120.938 129.75 113.438 129.75 104.25C129.75 95.0625 122.344 87.6562 113.156 87.6562C103.969 87.6562 96.4688 95.0625 96.4688 104.25C96.4688 113.438 103.969 120.938 113.156 120.938ZM183.844 78.2812C193.031 78.2812 200.531 70.7812 200.531 61.5938C200.531 52.4062 193.031 44.9062 183.844 44.9062C174.656 44.9062 167.156 52.4062 167.156 61.5938C167.156 70.7812 174.656 78.2812 183.844 78.2812Z" fill="#ffffff" fill-opacity="0.85"/>
 </g>
</svg>
