<?xml version="1.0" encoding="UTF-8"?>
<!--Generator: Apple Native CoreSVG 232.5-->
<!DOCTYPE svg
PUBLIC "-//W3C//DTD SVG 1.1//EN"
       "http://www.w3.org/Graphics/SVG/1.1/DTD/svg11.dtd">
<svg version="1.1" xmlns="http://www.w3.org/2000/svg" xmlns:xlink="http://www.w3.org/1999/xlink" width="122.25" height="217.125">
 <g>
  <rect height="217.125" opacity="0" width="122.25" x="0" y="0"/>
  <path d="M122.25 108.5C122.25 105.375 121 102.5 118.625 100.25L19.625 3.25C17.375 1.125 14.625 0 11.375 0C5 0 0 4.875 0 11.375C0 14.5 1.25 17.375 3.25 19.5L94.25 108.5L3.25 197.5C1.25 199.625 0 202.375 0 205.625C0 212.125 5 217 11.375 217C14.625 217 17.375 215.875 19.625 213.625L118.625 116.75C121 114.375 122.25 111.625 122.25 108.5Z" fill="#ffffff" fill-opacity="0.85"/>
 </g>
</svg>
