<?xml version="1.0" encoding="UTF-8"?>
<!--Generator: Apple Native CoreSVG 175.5-->
<!DOCTYPE svg
PUBLIC "-//W3C//DTD SVG 1.1//EN"
       "http://www.w3.org/Graphics/SVG/1.1/DTD/svg11.dtd">
<svg version="1.1" xmlns="http://www.w3.org/2000/svg" xmlns:xlink="http://www.w3.org/1999/xlink" width="156.188" height="219.844">
 <g>
  <rect height="219.844" opacity="0" width="156.188" x="0" y="0"/>
  <path d="M73.6875 202.781C123.188 202.781 156.188 169.312 156.188 118.875C156.188 34.9688 84.75 0 35.1562 0C26.3438 0 20.7188 3.09375 20.7188 9.09375C20.7188 11.4375 21.75 13.875 23.7188 16.125C34.875 29.4375 46.0312 45.2812 46.2188 63.75C46.2188 67.9688 45.75 71.7188 42.75 76.9688L47.4375 76.0312C43.2188 62.25 31.875 52.5 21.9375 52.5C18.0938 52.5 15.4688 55.3125 15.4688 59.5312C15.4688 61.9688 16.125 67.6875 16.125 71.8125C16.125 92.8125 0 105.094 0 138.938C0 177.281 29.3438 202.781 73.6875 202.781ZM74.625 189.656C37.875 189.656 13.2188 169.219 13.2188 138.938C13.2188 108.188 29.8125 97.7812 29.8125 73.4062C29.8125 69.75 29.0625 66.4688 28.2188 63.6562L26.0625 67.4062C33.75 72 39 80.3438 42 93.1875C42.375 95.1562 43.5 96.0938 44.9062 96.0938C52.5 96.0938 57.9375 77.25 57.9375 65.3438C57.9375 43.7812 48.6562 23.3438 33.5625 9.375L31.0312 12.375C98.4375 13.7812 142.406 58.5 142.406 118.406C142.406 160.969 115.219 189.656 74.625 189.656ZM75.8438 176.438C98.1562 176.438 109.031 160.031 109.031 141.469C109.031 123.188 98.3438 102.75 77.8125 93.0938C76.9688 92.8125 76.4062 93.2812 76.5 94.125C78.0938 109.5 75.75 123.75 70.7812 130.5C68.4375 125.062 65.625 120.375 61.3125 116.531C60.6562 115.969 60.0938 116.25 59.9062 117.094C58.4062 127.688 46.6875 133.594 46.6875 150.094C46.6875 165.844 58.3125 176.438 75.8438 176.438Z" fill="#ffffff" fill-opacity="0.85"/>
 </g>
</svg>
