<?xml version="1.0" encoding="UTF-8"?>
<!--Generator: Apple Native CoreSVG 175.5-->
<!DOCTYPE svg
PUBLIC "-//W3C//DTD SVG 1.1//EN"
       "http://www.w3.org/Graphics/SVG/1.1/DTD/svg11.dtd">
<svg version="1.1" xmlns="http://www.w3.org/2000/svg" xmlns:xlink="http://www.w3.org/1999/xlink" width="255" height="255.125">
 <g>
  <rect height="255.125" opacity="0" width="255" x="0" y="0"/>
  <path d="M127.5 255C197.25 255 255 197.125 255 127.5C255 57.75 197.375 0 127.625 0C121 0 117.75 4 117.75 10.5L117.75 58.875C117.75 64.375 121.5 68.625 126.875 68.625C132.375 68.625 136.125 64.375 136.125 58.875L136.125 10.25L127.375 21.25C186.625 21.25 233.625 68.5 233.625 127.5C233.625 186.5 186.5 233.75 127.5 233.75C68.5 233.75 21.125 186.5 21.25 127.5C21.375 101.125 30.75 77.25 46.5 58.875C50.25 54 50.5 48.125 46.375 43.75C42.25 39.375 35.375 39.75 30.75 45.25C11.75 67.5 0 96.375 0 127.5C0 197.125 57.875 255 127.5 255ZM147.5 145.5C157.375 135.125 155.375 121.25 143.5 113L77.375 66.75C71.125 62.375 64.625 69 69 75.125L115.125 141.25C123.5 153.125 137.375 155.25 147.5 145.5Z" fill="#ffffff" fill-opacity="0.85"/>
 </g>
</svg>
