<?xml version="1.0" encoding="UTF-8"?>
<!--Generator: Apple Native CoreSVG 232.5-->
<!DOCTYPE svg
PUBLIC "-//W3C//DTD SVG 1.1//EN"
       "http://www.w3.org/Graphics/SVG/1.1/DTD/svg11.dtd">
<svg version="1.1" xmlns="http://www.w3.org/2000/svg" xmlns:xlink="http://www.w3.org/1999/xlink" width="255" height="255.125">
 <g>
  <rect height="255.125" opacity="0" width="255" x="0" y="0"/>
  <path d="M127.5 255C197.25 255 255 197.125 255 127.5C255 57.75 197.125 0 127.375 0C57.75 0 0 57.75 0 127.5C0 197.125 57.875 255 127.5 255ZM127.5 233.75C68.5 233.75 21.375 186.5 21.375 127.5C21.375 68.5 68.375 21.25 127.375 21.25C186.375 21.25 233.75 68.5 233.75 127.5C233.75 186.5 186.5 233.75 127.5 233.75Z" fill="#ffffff" fill-opacity="0.85"/>
  <path d="M98.875 80.75C98.875 93.375 107.25 104.125 118.75 107.75L118.75 170.625C118.75 188.875 121.75 205.125 127.375 205.125C133.125 205.125 135.875 189.125 135.875 170.625L135.875 107.75C147.5 104.25 155.875 93.5 155.875 80.75C155.875 65 143.125 52.25 127.375 52.25C111.75 52.25 98.875 65 98.875 80.75ZM111 73.375C110.875 68.5 115.25 64.25 120 64.25C125 64.25 129.125 68.5 129.125 73.375C129.125 78.25 125 82.5 120 82.5C115.25 82.5 111 78.25 111 73.375Z" fill="#ffffff" fill-opacity="0.85"/>
 </g>
</svg>
