<?xml version="1.0" encoding="UTF-8"?>
<!--Generator: Apple Native CoreSVG 175.5-->
<!DOCTYPE svg
PUBLIC "-//W3C//DTD SVG 1.1//EN"
       "http://www.w3.org/Graphics/SVG/1.1/DTD/svg11.dtd">
<svg version="1.1" xmlns="http://www.w3.org/2000/svg" xmlns:xlink="http://www.w3.org/1999/xlink" width="196.5" height="179.156">
 <g>
  <rect height="179.156" opacity="0" width="196.5" x="0" y="0"/>
  <path d="M25.5938 178.125L170.906 178.125C186.844 178.125 196.5 167.062 196.5 152.719C196.5 148.312 195.188 143.719 192.844 139.594L120.094 12.8438C115.219 4.3125 106.875 0 98.25 0C89.625 0 81.1875 4.3125 76.4062 12.8438L3.65625 139.594C1.125 143.812 0 148.312 0 152.719C0 167.062 9.65625 178.125 25.5938 178.125ZM98.3438 115.5C93.4688 115.5 90.75 112.688 90.6562 107.719L89.4375 56.7188C89.3438 51.75 93 48.1875 98.25 48.1875C103.312 48.1875 107.25 51.8438 107.156 56.8125L105.75 107.719C105.656 112.781 102.938 115.5 98.3438 115.5ZM98.3438 146.906C92.7188 146.906 87.8438 142.406 87.8438 136.875C87.8438 131.25 92.625 126.75 98.3438 126.75C103.969 126.75 108.75 131.156 108.75 136.875C108.75 142.5 103.875 146.906 98.3438 146.906Z" fill="#ffffff" fill-opacity="0.85"/>
 </g>
</svg>
