<?xml version="1.0" encoding="UTF-8"?>
<!--Generator: Apple Native CoreSVG 175.5-->
<!DOCTYPE svg
PUBLIC "-//W3C//DTD SVG 1.1//EN"
       "http://www.w3.org/Graphics/SVG/1.1/DTD/svg11.dtd">
<svg version="1.1" xmlns="http://www.w3.org/2000/svg" xmlns:xlink="http://www.w3.org/1999/xlink" width="191.25" height="191.344">
 <g>
  <rect height="191.344" opacity="0" width="191.25" x="0" y="0"/>
  <path d="M95.625 191.25C147.938 191.25 191.25 147.844 191.25 95.625C191.25 43.3125 147.844 0 95.5312 0C43.3125 0 0 43.3125 0 95.625C0 147.844 43.4062 191.25 95.625 191.25ZM95.625 175.312C51.375 175.312 16.0312 139.875 16.0312 95.625C16.0312 51.375 51.2812 15.9375 95.5312 15.9375C139.781 15.9375 175.312 51.375 175.312 95.625C175.312 139.875 139.875 175.312 95.625 175.312ZM54.375 129.469L136.969 129.469C141.75 129.469 144.562 126.938 144.562 123.281C144.562 118.031 139.406 113.438 134.812 108.75C131.25 105.094 130.594 97.6875 130.219 91.7812C129.75 71.8125 124.406 58.125 110.719 53.0625C108.656 46.4062 103.219 40.9688 95.625 40.9688C88.0312 40.9688 82.6875 46.4062 80.5312 53.0625C66.8438 58.125 61.5 71.8125 61.125 91.7812C60.6562 97.6875 59.9062 105.094 56.4375 108.75C52.0312 113.531 46.6875 118.031 46.6875 123.281C46.6875 126.938 49.5 129.469 54.375 129.469ZM95.625 151.125C104.438 151.125 110.906 144.844 111.469 137.25L79.7812 137.25C80.4375 144.844 86.8125 151.125 95.625 151.125Z" fill="#ffffff" fill-opacity="0.85"/>
 </g>
</svg>
